<svg width="124" height="20" viewBox="0 0 124 20" fill="none" xmlns="http://www.w3.org/2000/svg">
<path d="M10.3658 6.016C9.98181 5.6 9.57381 5.288 9.14181 5.08C8.72581 4.856 8.23781 4.744 7.67781 4.744C6.98981 4.744 6.40581 4.904 5.92581 5.224C5.46181 5.528 5.08581 5.96 4.79781 6.52C4.50981 7.064 4.30181 7.704 4.17381 8.44C4.04581 9.176 3.98181 9.968 3.98181 10.816C3.98181 11.664 4.03781 12.456 4.14981 13.192C4.27781 13.928 4.48581 14.576 4.77381 15.136C5.07781 15.696 5.47781 16.136 5.97381 16.456C6.48581 16.776 7.12581 16.936 7.89381 16.936C8.26181 16.936 8.61381 16.904 8.94981 16.84C9.28581 16.776 9.58981 16.712 9.86181 16.648C10.1498 16.568 10.3818 16.496 10.5578 16.432C10.7498 16.368 10.8698 16.328 10.9178 16.312L11.5898 18.328L11.2778 18.448C11.0698 18.528 10.7738 18.624 10.3898 18.736C10.0218 18.832 9.57381 18.92 9.04581 19C8.53381 19.096 7.96581 19.144 7.34181 19.144C5.19781 19.144 3.58181 18.464 2.49381 17.104C1.42181 15.728 0.885813 13.72 0.885813 11.08C0.885813 9.816 1.02981 8.664 1.31781 7.624C1.60581 6.568 2.03781 5.664 2.61381 4.912C3.20581 4.16 3.94181 3.576 4.82181 3.16C5.71781 2.744 6.76581 2.536 7.96581 2.536C8.92581 2.536 9.70981 2.712 10.3178 3.064C10.9418 3.416 11.4458 3.816 11.8298 4.264L10.3658 6.016ZM16.4003 19.096C15.5523 19.096 14.9043 18.848 14.4563 18.352C14.0083 17.84 13.7843 17.184 13.7843 16.384V7.048H16.5203V16.144C16.5203 16.512 16.5763 16.76 16.6883 16.888C16.8003 17.016 16.9683 17.08 17.1923 17.08C17.2563 17.08 17.3203 17.08 17.3843 17.08C17.4643 17.08 17.5363 17.072 17.6003 17.056C17.6643 17.056 17.7363 17.048 17.8163 17.032L18.1043 18.76C17.9923 18.824 17.8483 18.88 17.6723 18.928C17.5283 18.976 17.3443 19.016 17.1203 19.048C16.9123 19.08 16.6723 19.096 16.4003 19.096ZM15.2003 1.72C15.7123 1.72 16.1043 1.872 16.3763 2.176C16.6483 2.48 16.7843 2.872 16.7843 3.352C16.7843 3.832 16.6403 4.232 16.3523 4.552C16.0803 4.872 15.6723 5.032 15.1283 5.032C14.6163 5.032 14.2163 4.88 13.9283 4.576C13.6563 4.256 13.5203 3.872 13.5203 3.424C13.5203 2.928 13.6563 2.52 13.9283 2.2C14.2163 1.88 14.6403 1.72 15.2003 1.72ZM20.0209 2.08L22.7569 1.6V8.92C23.0449 8.264 23.4449 7.76 23.9569 7.408C24.4849 7.04 25.1569 6.856 25.9729 6.856C26.7249 6.856 27.3729 7 27.9169 7.288C28.4769 7.56 28.9409 7.96 29.3089 8.488C29.6769 9 29.9489 9.624 30.1249 10.36C30.3009 11.096 30.3889 11.912 30.3889 12.808C30.3889 13.72 30.2449 14.568 29.9569 15.352C29.6849 16.12 29.2929 16.784 28.7809 17.344C28.2849 17.904 27.6849 18.344 26.9809 18.664C26.2769 18.984 25.5009 19.144 24.6529 19.144C24.1729 19.144 23.6609 19.104 23.1169 19.024C22.5729 18.96 22.0689 18.888 21.6049 18.808C21.0769 18.712 20.5489 18.592 20.0209 18.448V2.08ZM25.5169 8.776C25.1169 8.776 24.7489 8.912 24.4129 9.184C24.0769 9.456 23.7809 9.816 23.5249 10.264C23.2849 10.712 23.0929 11.216 22.9489 11.776C22.8209 12.336 22.7569 12.912 22.7569 13.504V16.984C22.9009 17.016 23.1329 17.064 23.4529 17.128C23.7729 17.192 24.0689 17.224 24.3409 17.224C24.9329 17.224 25.4289 17.12 25.8289 16.912C26.2289 16.704 26.5489 16.416 26.7889 16.048C27.0289 15.68 27.1969 15.24 27.2929 14.728C27.3889 14.216 27.4369 13.656 27.4369 13.048C27.4369 12.488 27.4209 11.952 27.3889 11.44C27.3569 10.928 27.2689 10.472 27.1249 10.072C26.9969 9.672 26.8049 9.36 26.5489 9.136C26.2929 8.896 25.9489 8.776 25.5169 8.776ZM32.0744 13.312C32.0744 12.24 32.2184 11.296 32.5064 10.48C32.8104 9.664 33.2184 8.984 33.7304 8.44C34.2584 7.88 34.8744 7.464 35.5784 7.192C36.2824 6.904 37.0424 6.76 37.8584 6.76C38.5784 6.76 39.1864 6.848 39.6824 7.024C40.1944 7.2 40.6104 7.44 40.9304 7.744C41.2504 8.048 41.4824 8.408 41.6264 8.824C41.7864 9.24 41.8664 9.688 41.8664 10.168C41.8664 10.744 41.7064 11.296 41.3864 11.824C41.0664 12.336 40.6024 12.792 39.9944 13.192C39.4024 13.576 38.6824 13.888 37.8344 14.128C36.9864 14.352 36.0344 14.472 34.9784 14.488C35.0264 14.856 35.0984 15.208 35.1944 15.544C35.3064 15.864 35.4584 16.152 35.6504 16.408C35.8584 16.648 36.1224 16.84 36.4424 16.984C36.7624 17.128 37.1624 17.2 37.6424 17.2C37.9944 17.2 38.3704 17.16 38.7704 17.08C39.1704 17 39.5384 16.904 39.8744 16.792C40.2744 16.664 40.6664 16.52 41.0504 16.36L41.7704 18.064C41.3544 18.272 40.9064 18.456 40.4264 18.616C40.0104 18.76 39.5304 18.888 38.9864 19C38.4424 19.112 37.8664 19.168 37.2584 19.168C36.3304 19.168 35.5384 19.032 34.8824 18.76C34.2264 18.472 33.6904 18.072 33.2744 17.56C32.8584 17.048 32.5544 16.432 32.3624 15.712C32.1704 14.992 32.0744 14.192 32.0744 13.312ZM37.6424 8.632C37.1144 8.632 36.6744 8.76 36.3224 9.016C35.9864 9.256 35.7144 9.576 35.5064 9.976C35.2984 10.36 35.1464 10.8 35.0504 11.296C34.9704 11.776 34.9224 12.264 34.9064 12.76C35.6744 12.728 36.3224 12.632 36.8504 12.472C37.3944 12.296 37.8344 12.088 38.1704 11.848C38.5064 11.592 38.7464 11.32 38.8904 11.032C39.0504 10.744 39.1304 10.456 39.1304 10.168C39.1304 9.704 38.9944 9.336 38.7224 9.064C38.4504 8.776 38.0904 8.632 37.6424 8.632ZM49.4901 9.544C49.2021 9.544 48.9141 9.616 48.6261 9.76C48.3381 9.904 48.0821 10.104 47.8581 10.36C47.6341 10.6 47.4501 10.896 47.3061 11.248C47.1621 11.6 47.0901 11.992 47.0901 12.424V19H44.3541V12.952C44.3541 11.992 44.2901 11.192 44.1621 10.552C44.0341 9.896 43.8981 9.368 43.7541 8.968C43.5781 8.504 43.3861 8.128 43.1781 7.84L45.3381 6.976C45.4821 7.152 45.6341 7.368 45.7941 7.624C45.9221 7.848 46.0501 8.112 46.1781 8.416C46.3061 8.72 46.4101 9.08 46.4901 9.496C46.8101 8.568 47.2741 7.904 47.8821 7.504C48.4901 7.088 49.1781 6.88 49.9461 6.88C50.3141 6.88 50.6581 6.928 50.9781 7.024C51.2981 7.104 51.4501 7.144 51.4341 7.144L50.6661 9.808C50.6821 9.808 50.5861 9.768 50.3781 9.688C50.1861 9.592 49.8901 9.544 49.4901 9.544ZM60.4375 19V11.248C60.4375 10.576 60.3175 10.04 60.0775 9.64C59.8375 9.224 59.4295 9.016 58.8535 9.016C58.4855 9.016 58.1255 9.112 57.7735 9.304C57.4375 9.48 57.1335 9.744 56.8615 10.096C56.5895 10.448 56.3655 10.88 56.1895 11.392C56.0295 11.888 55.9495 12.448 55.9495 13.072V19H53.2135V12.952C53.2135 11.992 53.1495 11.192 53.0215 10.552C52.8935 9.896 52.7575 9.368 52.6135 8.968C52.4375 8.504 52.2455 8.128 52.0375 7.84L54.1975 6.976C54.3575 7.152 54.5175 7.368 54.6775 7.624C54.8055 7.848 54.9335 8.128 55.0615 8.464C55.1895 8.784 55.2935 9.152 55.3735 9.568C55.7895 8.608 56.3895 7.92 57.1735 7.504C57.9575 7.072 58.7815 6.856 59.6455 6.856C60.8775 6.856 61.7655 7.232 62.3095 7.984C62.8695 8.72 63.1495 9.72 63.1495 10.984V19H60.4375ZM75.8174 13.216C75.8174 14.176 75.8734 14.984 75.9854 15.64C76.1134 16.28 76.2494 16.8 76.3934 17.2C76.5694 17.68 76.7614 18.056 76.9694 18.328L74.8334 19.192C74.6254 18.984 74.4334 18.736 74.2574 18.448C74.1134 18.192 73.9774 17.888 73.8494 17.536C73.7214 17.168 73.6414 16.736 73.6094 16.24C73.3374 17.2 72.8974 17.928 72.2894 18.424C71.6974 18.904 70.8894 19.144 69.8654 19.144C69.1134 19.144 68.4574 19.008 67.8974 18.736C67.3534 18.448 66.8974 18.048 66.5294 17.536C66.1614 17.008 65.8894 16.376 65.7134 15.64C65.5374 14.904 65.4494 14.088 65.4494 13.192C65.4494 12.28 65.5854 11.44 65.8574 10.672C66.1454 9.888 66.5374 9.216 67.0334 8.656C67.5454 8.096 68.1534 7.656 68.8574 7.336C69.5614 7.016 70.3374 6.856 71.1854 6.856C71.6654 6.856 72.1614 6.896 72.6734 6.976C73.2014 7.04 73.6894 7.112 74.1374 7.192C74.5854 7.272 74.9614 7.352 75.2654 7.432C75.5854 7.496 75.7694 7.536 75.8174 7.552V13.216ZM70.3214 17.224C70.7214 17.224 71.0894 17.088 71.4254 16.816C71.7614 16.544 72.0494 16.192 72.2894 15.76C72.5454 15.312 72.7374 14.808 72.8654 14.248C73.0094 13.672 73.0814 13.088 73.0814 12.496V9.04C72.9214 8.992 72.6814 8.936 72.3614 8.872C72.0414 8.808 71.7534 8.776 71.4974 8.776C70.8894 8.776 70.3854 8.88 69.9854 9.088C69.6014 9.296 69.2894 9.584 69.0494 9.952C68.8094 10.32 68.6414 10.76 68.5454 11.272C68.4494 11.784 68.4014 12.344 68.4014 12.952C68.4014 13.512 68.4174 14.048 68.4494 14.56C68.4814 15.072 68.5614 15.528 68.6894 15.928C68.8334 16.328 69.0334 16.648 69.2894 16.888C69.5454 17.112 69.8894 17.224 70.3214 17.224ZM71.0414 6.088C70.4974 5.736 69.9454 5.352 69.3854 4.936C68.9054 4.568 68.3854 4.136 67.8254 3.64C67.2654 3.144 66.7534 2.6 66.2894 2.008L68.1134 0.303999L72.1934 4.84L71.0414 6.088ZM83.9198 9.544C83.6318 9.544 83.3438 9.616 83.0558 9.76C82.7678 9.904 82.5118 10.104 82.2878 10.36C82.0638 10.6 81.8798 10.896 81.7358 11.248C81.5918 11.6 81.5198 11.992 81.5198 12.424V19H78.7838V12.952C78.7838 11.992 78.7198 11.192 78.5918 10.552C78.4638 9.896 78.3278 9.368 78.1838 8.968C78.0078 8.504 77.8158 8.128 77.6078 7.84L79.7678 6.976C79.9118 7.152 80.0638 7.368 80.2238 7.624C80.3518 7.848 80.4798 8.112 80.6078 8.416C80.7358 8.72 80.8398 9.08 80.9198 9.496C81.2398 8.568 81.7038 7.904 82.3118 7.504C82.9198 7.088 83.6078 6.88 84.3758 6.88C84.7438 6.88 85.0878 6.928 85.4078 7.024C85.7278 7.104 85.8798 7.144 85.8638 7.144L85.0958 9.808C85.1118 9.808 85.0158 9.768 84.8078 9.688C84.6158 9.592 84.3198 9.544 83.9198 9.544ZM89.9472 19.096C89.0992 19.096 88.4512 18.848 88.0032 18.352C87.5552 17.84 87.3312 17.184 87.3312 16.384V7.048H90.0672V16.144C90.0672 16.512 90.1232 16.76 90.2352 16.888C90.3472 17.016 90.5152 17.08 90.7392 17.08C90.8032 17.08 90.8672 17.08 90.9312 17.08C91.0112 17.08 91.0832 17.072 91.1472 17.056C91.2112 17.056 91.2832 17.048 91.3632 17.032L91.6512 18.76C91.5392 18.824 91.3952 18.88 91.2192 18.928C91.0752 18.976 90.8912 19.016 90.6672 19.048C90.4592 19.08 90.2192 19.096 89.9472 19.096ZM88.7472 1.72C89.2592 1.72 89.6512 1.872 89.9232 2.176C90.1952 2.48 90.3312 2.872 90.3312 3.352C90.3312 3.832 90.1872 4.232 89.8992 4.552C89.6272 4.872 89.2192 5.032 88.6752 5.032C88.1632 5.032 87.7632 4.88 87.4752 4.576C87.2032 4.256 87.0672 3.872 87.0672 3.424C87.0672 2.928 87.2032 2.52 87.4752 2.2C87.7632 1.88 88.1872 1.72 88.7472 1.72ZM100.672 7.048H103.408V13.216C103.408 14.176 103.464 14.984 103.576 15.64C103.704 16.28 103.84 16.8 103.984 17.2C104.16 17.68 104.352 18.056 104.56 18.328L102.424 19.192C102.232 19.016 102.056 18.792 101.896 18.52C101.768 18.296 101.632 18.024 101.488 17.704C101.36 17.368 101.272 16.976 101.224 16.528C100.792 17.472 100.184 18.144 99.3998 18.544C98.6158 18.944 97.7998 19.144 96.9518 19.144C95.6878 19.144 94.7838 18.776 94.2398 18.04C93.7118 17.304 93.4478 16.296 93.4478 15.016V7.048H96.1838V14.968C96.1838 15.64 96.3038 16.168 96.5438 16.552C96.7838 16.936 97.1918 17.128 97.7678 17.128C98.1198 17.128 98.4638 17.032 98.7998 16.84C99.1518 16.632 99.4638 16.344 99.7358 15.976C100.024 15.608 100.248 15.168 100.408 14.656C100.584 14.128 100.672 13.544 100.672 12.904V7.048ZM120.444 19V11.176C120.444 10.504 120.34 9.976 120.132 9.592C119.924 9.192 119.564 8.992 119.052 8.992C118.748 8.992 118.436 9.08 118.116 9.256C117.812 9.416 117.532 9.656 117.276 9.976C117.02 10.296 116.812 10.68 116.652 11.128C116.492 11.576 116.412 12.072 116.412 12.616V19H113.7V11.176C113.7 10.504 113.596 9.976 113.388 9.592C113.18 9.192 112.82 8.992 112.308 8.992C111.988 8.992 111.668 9.088 111.348 9.28C111.044 9.456 110.764 9.72 110.508 10.072C110.268 10.424 110.068 10.856 109.908 11.368C109.764 11.864 109.692 12.424 109.692 13.048V19H106.956V12.952C106.956 11.992 106.892 11.192 106.764 10.552C106.636 9.896 106.5 9.368 106.356 8.968C106.18 8.504 105.988 8.128 105.78 7.84L107.94 6.976C108.1 7.152 108.26 7.368 108.42 7.624C108.548 7.848 108.676 8.128 108.804 8.464C108.932 8.784 109.036 9.152 109.116 9.568C109.516 8.608 110.076 7.92 110.796 7.504C111.532 7.072 112.308 6.856 113.124 6.856C113.94 6.856 114.572 7.064 115.02 7.48C115.484 7.896 115.828 8.432 116.052 9.088C116.484 8.288 117.036 7.72 117.708 7.384C118.396 7.032 119.116 6.856 119.868 6.856C120.492 6.856 121.012 6.96 121.428 7.168C121.86 7.36 122.196 7.64 122.436 8.008C122.692 8.36 122.876 8.792 122.988 9.304C123.1 9.8 123.156 10.36 123.156 10.984V19H120.444Z" fill="#D31380"/></svg>
