<svg width="33" height="33" viewBox="0 0 33 33" fill="none" xmlns="http://www.w3.org/2000/svg">
<path d="M32.8887 16.4609C32.8887 25.2975 25.7252 32.4609 16.8887 32.4609C8.05212 32.4609 0.888672 25.2975 0.888672 16.4609C0.888672 7.62438 8.05212 0.460938 16.8887 0.460938C25.7252 0.460938 32.8887 7.62438 32.8887 16.4609Z" fill="#D31380"/>
<path d="M20.2975 11.9769C19.9135 11.5609 19.5055 11.2489 19.0735 11.0409C18.6575 10.8169 18.1695 10.7049 17.6095 10.7049C16.9215 10.7049 16.3375 10.8649 15.8575 11.1849C15.3935 11.4889 15.0175 11.9209 14.7295 12.4809C14.4415 13.0249 14.2335 13.6649 14.1055 14.4009C13.9775 15.1369 13.9135 15.9289 13.9135 16.7769C13.9135 17.6249 13.9695 18.4169 14.0815 19.1529C14.2095 19.8889 14.4175 20.5369 14.7055 21.0969C15.0095 21.6569 15.4095 22.0969 15.9055 22.4169C16.4175 22.7369 17.0575 22.8969 17.8255 22.8969C18.1935 22.8969 18.5455 22.8649 18.8815 22.8009C19.2175 22.7369 19.5215 22.6729 19.7935 22.6089C20.0815 22.5289 20.3135 22.4569 20.4895 22.3929C20.6815 22.3289 20.8015 22.2889 20.8495 22.2729L21.5215 24.2889L21.2095 24.4089C21.0015 24.4889 20.7055 24.5849 20.3215 24.6969C19.9535 24.7929 19.5055 24.8809 18.9775 24.9609C18.4655 25.0569 17.8975 25.1049 17.2735 25.1049C15.1295 25.1049 13.5135 24.4249 12.4255 23.0649C11.3535 21.6889 10.8175 19.6809 10.8175 17.0409C10.8175 15.7769 10.9615 14.6249 11.2495 13.5849C11.5375 12.5289 11.9695 11.6249 12.5455 10.8729C13.1375 10.1209 13.8735 9.53694 14.7535 9.12094C15.6495 8.70494 16.6975 8.49694 17.8975 8.49694C18.8575 8.49694 19.6415 8.67294 20.2495 9.02494C20.8735 9.37694 21.3775 9.77694 21.7615 10.2249L20.2975 11.9769Z" fill="white"/>
</svg>
