<svg width="17" height="17" viewBox="0 0 17 17" fill="none" xmlns="http://www.w3.org/2000/svg">
<g clip-path="url(#clip0_1032_3603)">
<path d="M16.7457 3.89193C16.1557 4.15126 15.5257 4.32793 14.8624 4.40859C15.5384 4.00126 16.0584 3.35926 16.3044 2.59326C15.6704 2.96326 14.9677 3.2326 14.2197 3.38259C13.6224 2.74326 12.771 2.34326 11.8257 2.34326C10.0144 2.34326 8.5457 3.81193 8.5457 5.62126C8.5457 5.88126 8.5757 6.13126 8.63037 6.37059C5.9037 6.24193 3.48703 4.9326 1.8697 2.95326C1.58503 3.43459 1.4257 3.99393 1.4257 4.60326C1.4257 5.74326 2.0057 6.74526 2.88437 7.33393C2.34637 7.31659 1.84037 7.16859 1.39903 6.92326V6.96393C1.39903 8.55393 2.5277 9.87993 4.0297 10.1819C3.75437 10.2559 3.4637 10.2959 3.1657 10.2959C2.95637 10.2959 2.7557 10.2759 2.55503 10.2386C2.9757 11.5406 4.18503 12.4899 5.62437 12.5166C4.50437 13.3959 3.08503 13.9199 1.55637 13.9199C1.29637 13.9199 1.03703 13.9046 0.776367 13.8753C2.2357 14.8046 3.95503 15.3479 5.81437 15.3479C11.8504 15.3479 15.147 10.3506 15.147 6.02393C15.147 5.88459 15.147 5.74393 15.137 5.60393C15.7777 5.14459 16.337 4.56393 16.777 3.90526L16.7457 3.89193Z" fill="#4F5A6E"/>
</g>
<defs>
<clipPath id="clip0_1032_3603">
<rect width="16" height="16" fill="white" transform="translate(0.776367 0.845703)"/>
</clipPath>
</defs>
</svg>
