<svg width="17" height="17" viewBox="0 0 17 17" fill="none" xmlns="http://www.w3.org/2000/svg">
<g clip-path="url(#clip0_1032_3605)">
<path d="M15.8937 0.845703H1.65903C1.1717 0.845703 0.776367 1.24104 0.776367 1.72837V15.963C0.776367 16.451 1.1717 16.8457 1.65903 16.8457H9.3217V10.6497H7.2357V8.2357H9.3217V6.45237C9.3217 4.38637 10.5844 3.26237 12.4277 3.26237C13.311 3.26237 14.0704 3.32704 14.2917 3.35637V5.51637H13.011C12.011 5.51637 11.8164 5.99704 11.8164 6.69704V8.2377H14.2057L13.8957 10.6577H11.8164V16.8457H15.893C16.3817 16.8457 16.7764 16.451 16.7764 15.963V1.72837C16.7764 1.24104 16.3817 0.845703 15.8937 0.845703Z" fill="#4F5A6E"/>
</g>
<defs>
<clipPath id="clip0_1032_3605">
<rect width="16" height="16" fill="white" transform="translate(0.776367 0.845703)"/>
</clipPath>
</defs>
</svg>
