<svg width="17" height="17" viewBox="0 0 17 17" fill="none" xmlns="http://www.w3.org/2000/svg">
<g clip-path="url(#clip0_1032_3607)">
<path fill-rule="evenodd" clip-rule="evenodd" d="M8.77637 0.845703C6.60337 0.845703 6.33137 0.855703 5.47837 0.893703C4.62637 0.933703 4.04637 1.0677 3.53637 1.2657C3.01037 1.4697 2.56337 1.7437 2.11937 2.1887C1.67437 2.6327 1.39937 3.0787 1.19637 3.6057C0.998367 4.1157 0.863367 4.6957 0.824367 5.5477C0.784367 6.4007 0.776367 6.6727 0.776367 8.8457C0.776367 11.0187 0.786367 11.2907 0.824367 12.1437C0.864367 12.9957 0.998367 13.5767 1.19637 14.0857C1.40037 14.6117 1.67437 15.0587 2.11937 15.5027C2.56337 15.9477 3.00937 16.2227 3.53637 16.4257C4.04637 16.6237 4.62637 16.7587 5.47837 16.7977C6.33137 16.8377 6.60337 16.8457 8.77637 16.8457C10.9494 16.8457 11.2214 16.8357 12.0744 16.7977C12.9264 16.7577 13.5074 16.6237 14.0164 16.4257C14.5424 16.2217 14.9894 15.9477 15.4334 15.5027C15.8784 15.0587 16.1534 14.6127 16.3564 14.0857C16.5544 13.5757 16.6894 12.9957 16.7284 12.1437C16.7684 11.2907 16.7764 11.0187 16.7764 8.8457C16.7764 6.6727 16.7664 6.4007 16.7284 5.5477C16.6884 4.6957 16.5544 4.1147 16.3564 3.6057C16.1524 3.0797 15.8784 2.6327 15.4334 2.1887C14.9894 1.7437 14.5434 1.4687 14.0164 1.2657C13.5064 1.0677 12.9264 0.932703 12.0744 0.893703C11.2214 0.853703 10.9494 0.845703 8.77637 0.845703ZM8.77637 2.2857C10.9124 2.2857 11.1664 2.2957 12.0094 2.3337C12.7894 2.3697 13.2124 2.4997 13.4944 2.6097C13.8684 2.7547 14.1344 2.9277 14.4144 3.2077C14.6944 3.4877 14.8674 3.7537 15.0124 4.1277C15.1224 4.4097 15.2524 4.8327 15.2884 5.6127C15.3264 6.4567 15.3354 6.7097 15.3354 8.8457C15.3354 10.9817 15.3254 11.2357 15.2874 12.0787C15.2514 12.8587 15.1214 13.2817 15.0114 13.5637C14.8664 13.9377 14.6934 14.2037 14.4134 14.4837C14.1334 14.7637 13.8674 14.9367 13.4934 15.0817C13.2114 15.1917 12.7884 15.3217 12.0084 15.3577C11.1644 15.3957 10.9114 15.4047 8.77537 15.4047C6.63937 15.4047 6.38537 15.3947 5.54237 15.3567C4.76237 15.3207 4.33937 15.1907 4.05737 15.0807C3.68337 14.9357 3.41737 14.7627 3.13737 14.4827C2.85737 14.2027 2.68437 13.9367 2.53937 13.5627C2.42937 13.2807 2.29937 12.8577 2.26337 12.0777C2.22637 11.2357 2.21637 10.9817 2.21637 8.8457C2.21637 6.7097 2.22637 6.4557 2.26437 5.6127C2.30037 4.8327 2.43037 4.4097 2.54037 4.1277C2.68537 3.7537 2.85837 3.4877 3.13837 3.2077C3.41837 2.9277 3.68437 2.7547 4.05837 2.6097C4.34037 2.4997 4.76337 2.3697 5.54337 2.3337C6.38637 2.2957 6.64037 2.2857 8.77637 2.2857ZM8.77637 4.7377C6.50637 4.7377 4.66837 6.5777 4.66837 8.8457C4.66837 11.1157 6.50837 12.9537 8.77637 12.9537C11.0464 12.9537 12.8844 11.1137 12.8844 8.8457C12.8844 6.5757 11.0444 4.7377 8.77637 4.7377ZM8.77637 11.5127C7.30337 11.5127 6.10937 10.3187 6.10937 8.8457C6.10937 7.3727 7.30337 6.1787 8.77637 6.1787C10.2494 6.1787 11.4434 7.3727 11.4434 8.8457C11.4434 10.3187 10.2494 11.5127 8.77637 11.5127ZM14.0064 4.5757C14.0064 5.1057 13.5764 5.5357 13.0464 5.5357C12.5164 5.5357 12.0864 5.1057 12.0864 4.5757C12.0864 4.0457 12.5164 3.6157 13.0464 3.6157C13.5764 3.6157 14.0064 4.0457 14.0064 4.5757Z" fill="#4F5A6E"/>
</g>
<defs>
<clipPath id="clip0_1032_3607">
<rect width="16" height="16" fill="white" transform="translate(0.776367 0.845703)"/>
</clipPath>
</defs>
</svg>
